<svg width="601.364" height="198.033" viewBox="0 0 159.111 52.396" xmlns="http://www.w3.org/2000/svg"><path fill="#d5d5d5" d="M148.526 81.477c-6.915.67-13.088 2.294-17.675 4.587l-2.116 1.058-3.034-.53c-7.726-1.34-17.85-1.34-24.66.036-5.855 1.2-13.087 4.34-15.945 6.95-3.034 2.787-3.95 7.126-2.046 9.948.53.706.847 1.411.74 1.482-.105.106-1.34.705-2.75 1.305-7.62 3.316-10.972 8.467-8.08 12.418 2.54 3.563 6.986 5.75 15.7 7.726 1.622.352 3.844 1.305 6.526 2.822 4.586 2.54 6.42 3.104 12.558 3.916 7.656 1.023 15.946.317 22.367-1.87l2.61-.882 2.505.74c4.833 1.412 8.82 1.906 13.97 1.694 5.468-.247 8.713-.846 13.3-2.575l3.245-1.2 5.75.212c6.844.282 13.723-.247 20.038-1.517 5.08-1.023 6.386-1.623 10.936-5.01 2.681-2.01 3.916-2.68 6.244-3.386 2.717-.847 3-1.023 4.763-3.07 3.986-4.656 4.621-5.15 6.88-5.397 5.29-.6 10.688-4.938 10.688-8.537 0-1.834-1.129-3.069-4.304-4.621-6.279-3.14-18.062-5.045-30.268-4.974-8.36.07-8.537.035-11.465-3.034-2.752-2.858-7.973-5.468-13.406-6.703-6.561-1.517-16.58-2.187-23.071-1.588z" style="stroke-width:.0352778" transform="translate(-71.93 -81.26)"/></svg>